PathFileType	4	(X/Y/Z)	RBDS012static.trc
DataRate	CameraRate	NumFrames	NumMarkers	Units	OrigDataRate	OrigDataStartFrame	OrigNumFrames
150.000000	150.000000	4	48	mm	150.000000	112	150
Frame#	Time	L.Ankle			L.Ankle.Medial			L.ASIS			L.GTR			L.Heel.Bottom			L.Heel.Lateral			L.Heel.Top			L.HF			L.Iliac.Crest			L.Knee			L.Knee.Medial			L.MT1			L.MT2			L.MT5			L.PSIS			L.Shank.Bottom.Lateral			L.Shank.Bottom.Medial			L.Shank.Top.Lateral			L.Shank.Top.Medial			L.Thigh.Bottom.Lateral			L.Thigh.Bottom.Medial			L.Thigh.Top.Lateral			L.Thigh.Top.Medial			L.TT			R.Ankle			R.Ankle.Medial			R.ASIS			R.GTR			R.Heel.Bottom			R.Heel.Lateral			R.Heel.Top			R.HF			R.Iliac.Crest			R.Knee			R.Knee.Medial			R.MT1			R.MT2			R.MT5			R.PSIS			R.Shank.Bottom.Lateral			R.Shank.Bottom.Medial			R.Shank.Top.Lateral			R.Shank.Top.Medial			R.Thigh.Bottom.Lateral			R.Thigh.Bottom.Medial			R.Thigh.Top.Lateral			R.Thigh.Top.Medial			R.TT			
		X1	Y1	Z1	X2	Y2	Z2	X3	Y3	Z3	X4	Y4	Z4	X5	Y5	Z5	X6	Y6	Z6	X7	Y7	Z7	X8	Y8	Z8	X9	Y9	Z9	X10	Y10	Z10	X11	Y11	Z11	X12	Y12	Z12	X13	Y13	Z13	X14	Y14	Z14	X15	Y15	Z15	X16	Y16	Z16	X17	Y17	Z17	X18	Y18	Z18	X19	Y19	Z19	X20	Y20	Z20	X21	Y21	Z21	X22	Y22	Z22	X23	Y23	Z23	X24	Y24	Z24	X25	Y25	Z25	X26	Y26	Z26	X27	Y27	Z27	X28	Y28	Z28	X29	Y29	Z29	X30	Y30	Z30	X31	Y31	Z31	X32	Y32	Z32	X33	Y33	Z33	X34	Y34	Z34	X35	Y35	Z35	X36	Y36	Z36	X37	Y37	Z37	X38	Y38	Z38	X39	Y39	Z39	X40	Y40	Z40	X41	Y41	Z41	X42	Y42	Z42	X43	Y43	Z43	X44	Y44	Z44	X45	Y45	Z45	X46	Y46	Z46	X47	Y47	Z47	X48	Y48	Z48	

113	0.7466666666666667	715.3756713867188	107.1646270751953	1041.916870117188	743.0219116210938	120.0774154663086	1125.9951171875	862.8575439453125	1038.947143554688	1083.4853515625	780.1598510742188	965.1963500976563	1043.254760742188	642.4618530273438	43.09522247314453	1086.013549804688	673.7442626953125	55.53913116455078	1040.067504882813	652.988525390625	92.88777160644531	1084.9912109375	755.2496948242188	482.6597290039063	1046.274047851563	805.0623168945313	1105.4580078125	1051.401000976563	756.1690673828125	556.8529663085938	1047.983520507813	765.27392578125	531.7604370117188	1178.047241210938	865.3153076171875	56.7319221496582	1128.91796875	878.5960693359375	66.48355102539063	1081.926147460938	841.7759399414063	51.39739227294922	1009.93017578125	691.470458984375	1079.9912109375	1174.986938476563	724.6285400390625	187.1683197021484	1037.398559570313	680.7423095703125	187.881591796875	1071.031494140625	717.76953125	267.1676635742188	1028.5	676.76220703125	268.5479736328125	1063.296142578125	788.92333984375	656.1675415039063	1030.286987304688	722.6133422851563	654.8838500976563	1060.2978515625	778.6708984375	766.0723876953125	1022.63134765625	719.7272338867188	765.433837890625	1057.53466796875	810.4392700195313	464.5845031738281	1091.989135742188	722.06494140625	110.1042327880859	1406.101806640625	749.6548461914063	123.570556640625	1324.555053710938	863.4685668945313	1051.08349609375	1365.552734375	792.0177612304688	961.7420654296875	1408.435302734375	642.6286010742188	44.88724899291992	1373.125122070313	665.1217041015625	62.551025390625	1408.768920898438	655.134521484375	94.56828308105469	1370.593017578125	774.9102783203125	480.4851379394531	1400.281372070313	808.2200927734375	1109.0009765625	1391.417114257813	773.0708618164063	556.3006591796875	1398.067993164063	782.9993896484375	537.940673828125	1268.546020507813	864.8723754882813	58.61207580566406	1323.039794921875	879.762939453125	67.09770965576172	1373.50732421875	841.2551879882813	52.91170501708984	1441.9990234375	692.8832397460938	1078.863525390625	1278.88134765625	723.166259765625	192.7193145751953	1409.019897460938	684.298583984375	200.8681030273438	1377.294555664063	728.895751953125	277.1971130371094	1420.38720703125	686.7528686523438	281.1138916015625	1388.026245117188	773.7655029296875	645.19189453125	1411.566772460938	715.9371337890625	644.7571411132813	1365.28662109375	765.169921875	754.6504516601563	1416.033081054688	712.6214599609375	755.1356201171875	1370.865112304688	828.2406005859375	466.2136535644531	1354.105102539063	
114	0.7533333333333334	715.3788452148438	107.1652908325195	1041.929809570313	743.0164794921875	120.0688323974609	1125.994384765625	862.8864135742188	1038.95166015625	1083.505126953125	780.1904296875	965.194580078125	1043.260620117188	642.4745483398438	43.09433364868164	1086.015747070313	673.7391967773438	55.53745651245117	1040.0791015625	652.99609375	92.89064025878906	1084.984619140625	755.2659912109375	482.6646118164063	1046.271240234375	805.1021118164063	1105.458129882813	1051.41357421875	756.1812744140625	556.850341796875	1047.989379882813	765.3077392578125	531.7632446289063	1178.052490234375	865.31787109375	56.73567199707031	1128.91650390625	878.6038818359375	66.48350524902344	1081.924072265625	841.7760009765625	51.3946418762207	1009.91162109375	691.4840087890625	1079.997436523438	1174.985473632813	724.6251220703125	187.171142578125	1037.399658203125	680.7517700195313	187.8768920898438	1071.032836914063	717.7708740234375	267.1680908203125	1028.510009765625	676.7740478515625	268.5556640625	1063.296997070313	788.939697265625	656.17138671875	1030.282592773438	722.6415405273438	654.8818969726563	1060.29150390625	778.6959228515625	766.075439453125	1022.638488769531	719.7544555664063	765.440185546875	1057.53759765625	810.452392578125	464.5770874023438	1091.983154296875	722.0697021484375	110.1067810058594	1406.108764648438	749.64990234375	123.5615692138672	1324.56787109375	863.4730834960938	1051.077758789063	1365.571533203125	792.015869140625	961.7445678710938	1408.4326171875	642.6334228515625	44.87610244750977	1373.13037109375	665.1292724609375	62.54128646850586	1408.768798828125	655.1255493164063	94.57076263427734	1370.594116210938	774.9185791015625	480.4823303222656	1400.284057617188	808.21728515625	1108.97998046875	1391.420654296875	773.0853271484375	556.2977294921875	1398.072387695313	782.9881591796875	537.9378051757813	1268.535888671875	864.8818359375	58.61430740356445	1323.04248046875	879.7596435546875	67.09337615966797	1373.513305664063	841.2550659179688	52.90818405151367	1441.992553710938	692.8815307617188	1078.889038085938	1278.85888671875	723.4681396484375	193.1610565185547	1409.150756835938	684.302978515625	200.8711700439453	1377.2958984375	728.8956298828125	277.1949157714844	1420.381713867188	686.7512817382813	281.12646484375	1388.02978515625	773.7759399414063	645.1958618164063	1411.572021484375	715.9467163085938	644.7659912109375	1365.285400390625	765.1678466796875	754.650634765625	1416.038208007813	712.6231689453125	755.1469116210938	1370.864379882813	828.2438354492188	466.2100219726563	1354.092407226563	
115	0.76	715.3804931640625	107.1688766479492	1041.931640625	743.0167236328125	120.0768661499023	1125.997924804688	862.9168701171875	1038.94970703125	1083.515747070313	780.22021484375	965.1939697265625	1043.252685546875	642.4683837890625	43.1009635925293	1086.014038085938	673.749755859375	55.53861236572266	1040.07421875	652.9932861328125	92.88990020751953	1084.995239257813	755.2877807617188	482.6585388183594	1046.268676757813	805.1302490234375	1105.467163085938	1051.4072265625	756.206787109375	556.8515625	1047.989501953125	765.3073120117188	531.7608642578125	1178.05419921875	865.3140869140625	56.73366546630859	1128.925537109375	878.606689453125	66.48314666748047	1081.923583984375	841.780517578125	51.39296340942383	1009.922790527344	691.509765625	1079.981689453125	1174.981079101563	724.6334228515625	187.1562957763672	1037.404541015625	680.760009765625	187.8850250244141	1071.02783203125	717.7928466796875	267.1642150878906	1028.505737304688	676.781494140625	268.5567321777344	1063.295166015625	788.9685668945313	656.1748657226563	1030.292724609375	722.67236328125	654.8844604492188	1060.29833984375	778.7198486328125	766.0731811523438	1022.634094238281	719.7784423828125	765.4341430664063	1057.530395507813	810.473876953125	464.5770263671875	1091.981079101563	722.0635986328125	110.10546875	1406.09814453125	749.6569213867188	123.5581436157227	1324.572143554688	863.4842529296875	1051.075317382813	1365.587646484375	792.012451171875	961.7431640625	1408.431030273438	642.6367797851563	44.88010025024414	1373.139404296875	665.1195068359375	62.54439544677734	1408.77734375	655.1294555664063	94.56591033935547	1370.588012695313	774.9341430664063	480.48828125	1400.280517578125	808.216552734375	1108.97802734375	1391.42578125	773.0900268554688	556.2977294921875	1398.0703125	783.0156860351563	537.929931640625	1268.54052734375	864.8805541992188	58.60830688476563	1323.046020507813	879.7550659179688	67.09816741943359	1373.513671875	841.2496948242188	52.91289138793945	1441.998779296875	692.89990234375	1078.884643554688	1278.862060546875	723.1768188476563	192.7213439941406	1409.014526367188	684.30322265625	200.8731536865234	1377.298461914063	728.90087890625	277.1917114257813	1420.3896484375	686.75732421875	281.1238403320313	1388.02197265625	773.78759765625	645.1864624023438	1411.563842773438	715.9571533203125	644.7623901367188	1365.29443359375	765.1797485351563	754.6522216796875	1416.024536132813	712.6268310546875	755.145751953125	1370.858642578125	828.2613525390625	466.201171875	1354.098266601563	
116	0.7666666666666667	715.38818359375	107.1684341430664	1041.935302734375	743.0250244140625	120.0697937011719	1125.998901367188	862.9461059570313	1038.94384765625	1083.52587890625	780.247802734375	965.1964111328125	1043.257446289063	642.47412109375	43.10066604614258	1086.015014648438	673.746826171875	55.5413818359375	1040.074829101563	652.9973754882813	92.89266204833984	1085.002197265625	755.3138427734375	482.6687622070313	1046.278686523438	805.17236328125	1105.469970703125	1051.404541015625	756.228759765625	556.8453369140625	1047.994018554688	765.3321533203125	531.7695922851563	1178.036376953125	865.318359375	56.73204040527344	1128.912231445313	878.5995483398438	66.47962188720703	1081.928955078125	841.7783813476563	51.39826583862305	1009.919616699219	691.5341186523438	1079.984130859375	1174.9677734375	724.6502075195313	187.1831207275391	1037.3994140625	680.772216796875	187.883544921875	1071.035888671875	717.8062133789063	267.1681213378906	1028.508666992188	676.7929077148438	268.559326171875	1063.3037109375	788.9967041015625	656.1842651367188	1030.291015625	722.7060546875	654.8856811523438	1060.295288085938	778.75390625	766.0675659179688	1022.633605957031	719.798583984375	765.4373168945313	1057.537353515625	810.4899291992188	464.5780029296875	1091.989501953125	722.0757446289063	110.105842590332	1406.096801757813	749.6627197265625	123.5664443969727	1324.559814453125	863.5020751953125	1051.074584960938	1365.596313476563	792.0162963867188	961.7454223632813	1408.440795898438	642.63720703125	44.8809814453125	1373.134643554688	665.1268310546875	62.55147171020508	1408.771362304688	655.1314086914063	94.5721435546875	1370.599609375	774.9442138671875	480.4887390136719	1400.27392578125	808.221435546875	1108.973266601563	1391.429809570313	773.1067504882813	556.2990112304688	1398.066528320313	783.033203125	537.9305419921875	1268.544677734375	864.874755859375	58.62300872802734	1323.045043945313	879.76123046875	67.09194183349609	1373.510986328125	841.242431640625	52.90200805664063	1441.998413085938	692.9158325195313	1078.854248046875	1278.838134765625	723.1762084960938	192.7172241210938	1409.014038085938	684.3052368164063	200.8813323974609	1377.294799804688	728.9093017578125	277.1898193359375	1420.384643554688	686.7673950195313	281.1233215332031	1388.020751953125	773.8017578125	645.1950073242188	1411.564208984375	715.9761352539063	644.7606201171875	1365.281982421875	765.1925659179688	754.6519775390625	1416.037719726563	712.6431274414063	755.1334228515625	1370.84912109375	828.284423828125	466.2023620605469	1354.093139648438	
